<?xml version="1.0" encoding="UTF-8"?>
<!-- Shortcut badge: an "open in new / launch" arrow leaving a box, drawn
     black with a white halo so it stays visible on dark covers.
     Shape from Material Design Icons "open-in-new" (Apache License 2.0). -->
<svg xmlns="http://www.w3.org/2000/svg" width="24" height="24" viewBox="0 0 24 24">
  <path d="M14,3V5H17.59L7.76,14.83L9.17,16.24L19,6.41V10H21V3M19,19H5V5H12V3H5C3.89,3 3,3.89 3,5V19A2,2 0 0,0 5,21H19A2,2 0 0,0 21,19V12H19V19Z"
        fill="#FFFFFF" stroke="#FFFFFF" stroke-width="2.5" stroke-linejoin="round"/>
  <path d="M14,3V5H17.59L7.76,14.83L9.17,16.24L19,6.41V10H21V3M19,19H5V5H12V3H5C3.89,3 3,3.89 3,5V19A2,2 0 0,0 5,21H19A2,2 0 0,0 21,19V12H19V19Z"
        fill="#000000"/>
</svg>
